%TF.GenerationSoftware,KiCad,Pcbnew,10.0.1*%
%TF.CreationDate,2026-05-24T21:12:28-07:00*%
%TF.ProjectId,HerbUnitPCB,48657262-556e-4697-9450-43422e6b6963,rev?*%
%TF.SameCoordinates,Original*%
%TF.FileFunction,Copper,L3,Inr*%
%TF.FilePolarity,Positive*%
%FSLAX46Y46*%
G04 Gerber Fmt 4.6, Leading zero omitted, Abs format (unit mm)*
G04 Created by KiCad (PCBNEW 10.0.1) date 2026-05-24 21:12:28*
%MOMM*%
%LPD*%
G01*
G04 APERTURE LIST*
G04 Aperture macros list*
%AMRoundRect*
0 Rectangle with rounded corners*
0 $1 Rounding radius*
0 $2 $3 $4 $5 $6 $7 $8 $9 X,Y pos of 4 corners*
0 Add a 4 corners polygon primitive as box body*
4,1,4,$2,$3,$4,$5,$6,$7,$8,$9,$2,$3,0*
0 Add four circle primitives for the rounded corners*
1,1,$1+$1,$2,$3*
1,1,$1+$1,$4,$5*
1,1,$1+$1,$6,$7*
1,1,$1+$1,$8,$9*
0 Add four rect primitives between the rounded corners*
20,1,$1+$1,$2,$3,$4,$5,0*
20,1,$1+$1,$4,$5,$6,$7,0*
20,1,$1+$1,$6,$7,$8,$9,0*
20,1,$1+$1,$8,$9,$2,$3,0*%
G04 Aperture macros list end*
%TA.AperFunction,ComponentPad*%
%ADD10R,1.700000X1.700000*%
%TD*%
%TA.AperFunction,ComponentPad*%
%ADD11C,1.700000*%
%TD*%
%TA.AperFunction,ComponentPad*%
%ADD12R,1.500000X1.500000*%
%TD*%
%TA.AperFunction,ComponentPad*%
%ADD13C,1.500000*%
%TD*%
%TA.AperFunction,ComponentPad*%
%ADD14O,1.000000X2.100000*%
%TD*%
%TA.AperFunction,ComponentPad*%
%ADD15O,1.000000X1.800000*%
%TD*%
%TA.AperFunction,ComponentPad*%
%ADD16R,3.500000X3.500000*%
%TD*%
%TA.AperFunction,ComponentPad*%
%ADD17RoundRect,0.750000X1.000000X-0.750000X1.000000X0.750000X-1.000000X0.750000X-1.000000X-0.750000X0*%
%TD*%
%TA.AperFunction,ComponentPad*%
%ADD18RoundRect,0.875000X0.875000X-0.875000X0.875000X0.875000X-0.875000X0.875000X-0.875000X-0.875000X0*%
%TD*%
%TA.AperFunction,HeatsinkPad*%
%ADD19C,0.600000*%
%TD*%
%TA.AperFunction,ComponentPad*%
%ADD20RoundRect,0.250000X-1.050000X1.050000X-1.050000X-1.050000X1.050000X-1.050000X1.050000X1.050000X0*%
%TD*%
%TA.AperFunction,ComponentPad*%
%ADD21C,2.600000*%
%TD*%
%TA.AperFunction,ViaPad*%
%ADD22C,0.600000*%
%TD*%
%TA.AperFunction,Conductor*%
%ADD23C,0.150000*%
%TD*%
G04 APERTURE END LIST*
D10*
%TO.N,GND*%
%TO.C,J6*%
X150426500Y-65532000D03*
D11*
%TO.N,+5V_JACK*%
X150426500Y-62992000D03*
%TO.N,PumpMotor*%
X150426500Y-60452000D03*
%TD*%
D12*
%TO.N,+3.3V_USB*%
%TO.C,U5*%
X186286000Y-46580000D03*
D13*
%TO.N,TempSensor*%
X186286000Y-44040000D03*
%TO.N,unconnected-(U5-NC-Pad3)*%
X186286000Y-41500000D03*
%TO.N,GND*%
X186286000Y-38960000D03*
%TD*%
D14*
%TO.N,GND*%
%TO.C,J1*%
X162812000Y-87722000D03*
D15*
X162812000Y-91922000D03*
D14*
X171452000Y-87722000D03*
D15*
X171452000Y-91922000D03*
%TD*%
D16*
%TO.N,JACK_BUS*%
%TO.C,J2*%
X146616500Y-81122000D03*
D17*
%TO.N,unconnected-(J2-Pad2)*%
X146616500Y-87122000D03*
D18*
%TO.N,GND*%
X151316500Y-84122000D03*
%TD*%
D10*
%TO.N,GND*%
%TO.C,J3*%
X150172500Y-54967500D03*
D11*
%TO.N,+3.3V_USB*%
X150172500Y-52427500D03*
%TO.N,MoistureRead*%
X150172500Y-49887500D03*
%TD*%
D19*
%TO.N,GND*%
%TO.C,U2*%
X164338000Y-43112000D03*
X164338000Y-44512000D03*
X165038000Y-42412000D03*
X165038000Y-43812000D03*
X165038000Y-45212000D03*
X165738000Y-43112000D03*
X165738000Y-44512000D03*
X166438000Y-42412000D03*
X166438000Y-43812000D03*
X166438000Y-45212000D03*
X167138000Y-43112000D03*
X167138000Y-44512000D03*
%TD*%
D20*
%TO.N,+3.3V_USB*%
%TO.C,J5*%
X145585000Y-38603000D03*
D21*
%TO.N,Net-(J5-Pin_2)*%
X145585000Y-43683000D03*
%TD*%
D22*
%TO.N,GND*%
X152196800Y-77470000D03*
X160223200Y-82753200D03*
X159816800Y-35864800D03*
X158597600Y-35153600D03*
X157124400Y-35966400D03*
X168605200Y-62585600D03*
X153517600Y-78994000D03*
X173228000Y-91897200D03*
X160782000Y-87782400D03*
X174574000Y-70358000D03*
X158800800Y-81330800D03*
X152298400Y-80721200D03*
X159918400Y-84328000D03*
X163372800Y-55626000D03*
X160883600Y-91846400D03*
X160883600Y-85496400D03*
X162864800Y-35864800D03*
X162001200Y-73761600D03*
X168583400Y-70075000D03*
X193598800Y-86410800D03*
X160883600Y-83261200D03*
X160324800Y-71069200D03*
X158851600Y-79044800D03*
X173278800Y-87680800D03*
X160172400Y-77419200D03*
X193852800Y-93929200D03*
X193751200Y-90170000D03*
X160477200Y-72542400D03*
%TO.N,VBUS*%
X164642800Y-85852000D03*
X169519600Y-85852000D03*
%TO.N,+3.3V_USB*%
X188724000Y-75133200D03*
X155905200Y-78892400D03*
X156870400Y-37693600D03*
X155194000Y-78181200D03*
X155194000Y-78892400D03*
X156870400Y-37033200D03*
X180340000Y-75285600D03*
X155194000Y-77470000D03*
%TO.N,En*%
X159766000Y-38632000D03*
X180340000Y-80518000D03*
%TO.N,BootMode1*%
X188724000Y-80314800D03*
X174650400Y-52120800D03*
%TO.N,WaterRead*%
X154127200Y-42976800D03*
%TO.N,SD_CS*%
X156718000Y-48818800D03*
X168249600Y-75082400D03*
%TO.N,SD_MOSI*%
X157148400Y-50062000D03*
X168300400Y-72593200D03*
%TO.N,SD_SCK*%
X160375600Y-55372000D03*
%TO.N,SD_MISO*%
X171683000Y-55422800D03*
%TD*%
%TO.N,En*%
D23*
X159766000Y-38632000D02*
X159766000Y-59944000D01*
X159766000Y-59944000D02*
X180340000Y-80518000D01*
%TO.N,BootMode1*%
X174650400Y-52120800D02*
X174650400Y-66241200D01*
X174650400Y-66241200D02*
X188724000Y-80314800D01*
%TO.N,SD_CS*%
X156210000Y-49326800D02*
X156210000Y-63042800D01*
X156718000Y-48818800D02*
X156210000Y-49326800D01*
X156210000Y-63042800D02*
X168249600Y-75082400D01*
%TO.N,SD_MOSI*%
X157148400Y-61441200D02*
X157148400Y-50062000D01*
X168300400Y-72593200D02*
X157148400Y-61441200D01*
%TD*%
%TA.AperFunction,Conductor*%
%TO.N,GND*%
G36*
X194217206Y-34864185D02*
G01*
X194237848Y-34880819D01*
X194989181Y-35632152D01*
X195022666Y-35693475D01*
X195025500Y-35719833D01*
X195025500Y-94836167D01*
X195005815Y-94903206D01*
X194989181Y-94923848D01*
X194237848Y-95675181D01*
X194176525Y-95708666D01*
X194150167Y-95711500D01*
X139097833Y-95711500D01*
X139030794Y-95691815D01*
X139010152Y-95675181D01*
X138258819Y-94923848D01*
X138225334Y-94862525D01*
X138222500Y-94836167D01*
X138222500Y-86316863D01*
X144666000Y-86316863D01*
X144666000Y-87927136D01*
X144676082Y-88040548D01*
X144729262Y-88226405D01*
X144729263Y-88226406D01*
X144818766Y-88397751D01*
X144866018Y-88455700D01*
X144940928Y-88547571D01*
X144999542Y-88595364D01*
X145090749Y-88669734D01*
X145262094Y-88759237D01*
X145447948Y-88812417D01*
X145561362Y-88822500D01*
X145561370Y-88822500D01*
X147671630Y-88822500D01*
X147671638Y-88822500D01*
X147785052Y-88812417D01*
X147970906Y-88759237D01*
X148142251Y-88669734D01*
X148292071Y-88547571D01*
X148414234Y-88397751D01*
X148503737Y-88226406D01*
X148520955Y-88166234D01*
X163666500Y-88166234D01*
X163666500Y-88317765D01*
X163705719Y-88464136D01*
X163743602Y-88529750D01*
X163781485Y-88595365D01*
X163888635Y-88702515D01*
X164019865Y-88778281D01*
X164166234Y-88817500D01*
X164166236Y-88817500D01*
X164317764Y-88817500D01*
X164317766Y-88817500D01*
X164464135Y-88778281D01*
X164595365Y-88702515D01*
X164702515Y-88595365D01*
X164778281Y-88464135D01*
X164817500Y-88317766D01*
X164817500Y-88166234D01*
X169446500Y-88166234D01*
X169446500Y-88317765D01*
X169485719Y-88464136D01*
X169523602Y-88529750D01*
X169561485Y-88595365D01*
X169668635Y-88702515D01*
X169799865Y-88778281D01*
X169946234Y-88817500D01*
X169946236Y-88817500D01*
X170097764Y-88817500D01*
X170097766Y-88817500D01*
X170244135Y-88778281D01*
X170375365Y-88702515D01*
X170482515Y-88595365D01*
X170558281Y-88464135D01*
X170597500Y-88317766D01*
X170597500Y-88166234D01*
X170558281Y-88019865D01*
X170482515Y-87888635D01*
X170375365Y-87781485D01*
X170309750Y-87743602D01*
X170244136Y-87705719D01*
X170170950Y-87686109D01*
X170097766Y-87666500D01*
X169946234Y-87666500D01*
X169799863Y-87705719D01*
X169668635Y-87781485D01*
X169668632Y-87781487D01*
X169561487Y-87888632D01*
X169561485Y-87888635D01*
X169485719Y-88019863D01*
X169446500Y-88166234D01*
X164817500Y-88166234D01*
X164778281Y-88019865D01*
X164702515Y-87888635D01*
X164595365Y-87781485D01*
X164529750Y-87743602D01*
X164464136Y-87705719D01*
X164390950Y-87686109D01*
X164317766Y-87666500D01*
X164166234Y-87666500D01*
X164019863Y-87705719D01*
X163888635Y-87781485D01*
X163888632Y-87781487D01*
X163781487Y-87888632D01*
X163781485Y-87888635D01*
X163705719Y-88019863D01*
X163666500Y-88166234D01*
X148520955Y-88166234D01*
X148556917Y-88040552D01*
X148567000Y-87927138D01*
X148567000Y-86316862D01*
X148556917Y-86203448D01*
X148503737Y-86017594D01*
X148414234Y-85846249D01*
X148365195Y-85786108D01*
X164142300Y-85786108D01*
X164142300Y-85917891D01*
X164176408Y-86045187D01*
X164209354Y-86102250D01*
X164242300Y-86159314D01*
X164335486Y-86252500D01*
X164434321Y-86309563D01*
X164446965Y-86316863D01*
X164449614Y-86318392D01*
X164576908Y-86352500D01*
X164576910Y-86352500D01*
X164708690Y-86352500D01*
X164708692Y-86352500D01*
X164835986Y-86318392D01*
X164950114Y-86252500D01*
X165043300Y-86159314D01*
X165109192Y-86045186D01*
X165143300Y-85917892D01*
X165143300Y-85786108D01*
X169019100Y-85786108D01*
X169019100Y-85917891D01*
X169053208Y-86045187D01*
X169086154Y-86102250D01*
X169119100Y-86159314D01*
X169212286Y-86252500D01*
X169311121Y-86309563D01*
X169323765Y-86316863D01*
X169326414Y-86318392D01*
X169453708Y-86352500D01*
X169453710Y-86352500D01*
X169585490Y-86352500D01*
X169585492Y-86352500D01*
X169712786Y-86318392D01*
X169826914Y-86252500D01*
X169920100Y-86159314D01*
X169985992Y-86045186D01*
X170020100Y-85917892D01*
X170020100Y-85786108D01*
X169985992Y-85658814D01*
X169920100Y-85544686D01*
X169826914Y-85451500D01*
X169769850Y-85418554D01*
X169712787Y-85385608D01*
X169649139Y-85368554D01*
X169585492Y-85351500D01*
X169453708Y-85351500D01*
X169326412Y-85385608D01*
X169212286Y-85451500D01*
X169212283Y-85451502D01*
X169119102Y-85544683D01*
X169119100Y-85544686D01*
X169053208Y-85658812D01*
X169019100Y-85786108D01*
X165143300Y-85786108D01*
X165109192Y-85658814D01*
X165043300Y-85544686D01*
X164950114Y-85451500D01*
X164893050Y-85418554D01*
X164835987Y-85385608D01*
X164772339Y-85368554D01*
X164708692Y-85351500D01*
X164576908Y-85351500D01*
X164449612Y-85385608D01*
X164335486Y-85451500D01*
X164335483Y-85451502D01*
X164242302Y-85544683D01*
X164242300Y-85544686D01*
X164176408Y-85658812D01*
X164142300Y-85786108D01*
X148365195Y-85786108D01*
X148292071Y-85696428D01*
X148200200Y-85621518D01*
X148142251Y-85574266D01*
X148085617Y-85544683D01*
X147970905Y-85484762D01*
X147816345Y-85440537D01*
X147785052Y-85431583D01*
X147785051Y-85431582D01*
X147785048Y-85431582D01*
X147696162Y-85423680D01*
X147671638Y-85421500D01*
X145561362Y-85421500D01*
X145549099Y-85422590D01*
X145447951Y-85431582D01*
X145262094Y-85484762D01*
X145090750Y-85574265D01*
X144940928Y-85696428D01*
X144818765Y-85846250D01*
X144729262Y-86017594D01*
X144676082Y-86203451D01*
X144666000Y-86316863D01*
X138222500Y-86316863D01*
X138222500Y-79352247D01*
X144666000Y-79352247D01*
X144666000Y-82891752D01*
X144677631Y-82950229D01*
X144677632Y-82950230D01*
X144721947Y-83016552D01*
X144788269Y-83060867D01*
X144788270Y-83060868D01*
X144846747Y-83072499D01*
X144846750Y-83072500D01*
X144846752Y-83072500D01*
X148386250Y-83072500D01*
X148386251Y-83072499D01*
X148401068Y-83069552D01*
X148444729Y-83060868D01*
X148444729Y-83060867D01*
X148444731Y-83060867D01*
X148511052Y-83016552D01*
X148555367Y-82950231D01*
X148555367Y-82950229D01*
X148555368Y-82950229D01*
X148566999Y-82891752D01*
X148567000Y-82891750D01*
X148567000Y-79411304D01*
X167899500Y-79411304D01*
X167899500Y-79588695D01*
X167934103Y-79762658D01*
X167934106Y-79762667D01*
X168001983Y-79926540D01*
X168001990Y-79926553D01*
X168100535Y-80074034D01*
X168100538Y-80074038D01*
X168225961Y-80199461D01*
X168225965Y-80199464D01*
X168373446Y-80298009D01*
X168373459Y-80298016D01*
X168496363Y-80348923D01*
X168537334Y-80365894D01*
X168537336Y-80365894D01*
X168537341Y-80365896D01*
X168711304Y-80400499D01*
X168711307Y-80400500D01*
X168711309Y-80400500D01*
X168888693Y-80400500D01*
X168888694Y-80400499D01*
X168946682Y-80388964D01*
X169062658Y-80365896D01*
X169062661Y-80365894D01*
X169062666Y-80365894D01*
X169226547Y-80298013D01*
X169374035Y-80199464D01*
X169499464Y-80074035D01*
X169598013Y-79926547D01*
X169665894Y-79762666D01*
X169700500Y-79588691D01*
X169700500Y-79411309D01*
X169700500Y-79411306D01*
X169700499Y-79411304D01*
X169665896Y-79237341D01*
X169665893Y-79237332D01*
X169598016Y-79073459D01*
X169598009Y-79073446D01*
X169499464Y-78925965D01*
X169499461Y-78925961D01*
X169374038Y-78800538D01*
X169374034Y-78800535D01*
X169226553Y-78701990D01*
X169226540Y-78701983D01*
X169062667Y-78634106D01*
X169062658Y-78634103D01*
X168888694Y-78599500D01*
X168888691Y-78599500D01*
X168711309Y-78599500D01*
X168711306Y-78599500D01*
X168537341Y-78634103D01*
X168537332Y-78634106D01*
X168373459Y-78701983D01*
X168373446Y-78701990D01*
X168225965Y-78800535D01*
X168225961Y-78800538D01*
X168100538Y-78925961D01*
X168100535Y-78925965D01*
X168001990Y-79073446D01*
X168001983Y-79073459D01*
X167934106Y-79237332D01*
X167934103Y-79237341D01*
X167899500Y-79411304D01*
X148567000Y-79411304D01*
X148567000Y-79352249D01*
X148566999Y-79352247D01*
X148555368Y-79293770D01*
X148555367Y-79293769D01*
X148511052Y-79227447D01*
X148444730Y-79183132D01*
X148444729Y-79183131D01*
X148386252Y-79171500D01*
X148386248Y-79171500D01*
X144846752Y-79171500D01*
X144846747Y-79171500D01*
X144788270Y-79183131D01*
X144788269Y-79183132D01*
X144721947Y-79227447D01*
X144677632Y-79293769D01*
X144677631Y-79293770D01*
X144666000Y-79352247D01*
X138222500Y-79352247D01*
X138222500Y-77404108D01*
X154693500Y-77404108D01*
X154693500Y-77535891D01*
X154727609Y-77663188D01*
X154727609Y-77663189D01*
X154785582Y-77763600D01*
X154802055Y-77831500D01*
X154785582Y-77887600D01*
X154727609Y-77988010D01*
X154727609Y-77988011D01*
X154727608Y-77988013D01*
X154727608Y-77988014D01*
X154693500Y-78115308D01*
X154693500Y-78247092D01*
X154717218Y-78335611D01*
X154727609Y-78374388D01*
X154727609Y-78374389D01*
X154785582Y-78474800D01*
X154802055Y-78542700D01*
X154785582Y-78598800D01*
X154727609Y-78699210D01*
X154727609Y-78699211D01*
X154693500Y-78826508D01*
X154693500Y-78958291D01*
X154727608Y-79085587D01*
X154760554Y-79142650D01*
X154793500Y-79199714D01*
X154886686Y-79292900D01*
X154985521Y-79349963D01*
X155000810Y-79358790D01*
X155000814Y-79358792D01*
X155128108Y-79392900D01*
X155128110Y-79392900D01*
X155259890Y-79392900D01*
X155259892Y-79392900D01*
X155387186Y-79358792D01*
X155487600Y-79300817D01*
X155555499Y-79284344D01*
X155611599Y-79300817D01*
X155656748Y-79326884D01*
X155712008Y-79358789D01*
X155712009Y-79358789D01*
X155712014Y-79358792D01*
X155839308Y-79392900D01*
X155839310Y-79392900D01*
X155971090Y-79392900D01*
X155971092Y-79392900D01*
X156098386Y-79358792D01*
X156212514Y-79292900D01*
X156305700Y-79199714D01*
X156371592Y-79085586D01*
X156405700Y-78958292D01*
X156405700Y-78826508D01*
X156371592Y-78699214D01*
X156305700Y-78585086D01*
X156212514Y-78491900D01*
X156155450Y-78458954D01*
X156098387Y-78426008D01*
X156034739Y-78408954D01*
X155971092Y-78391900D01*
X155839308Y-78391900D01*
X155839307Y-78391900D01*
X155832757Y-78392762D01*
X155763722Y-78381993D01*
X155711468Y-78335611D01*
X155692586Y-78268341D01*
X155693638Y-78253633D01*
X155694498Y-78247096D01*
X155694500Y-78247092D01*
X155694500Y-78115308D01*
X155660392Y-77988014D01*
X155602417Y-77887599D01*
X155585944Y-77819701D01*
X155602418Y-77763599D01*
X155660389Y-77663191D01*
X155660390Y-77663189D01*
X155660392Y-77663186D01*
X155694500Y-77535892D01*
X155694500Y-77404108D01*
X155660392Y-77276814D01*
X155594500Y-77162686D01*
X155501314Y-77069500D01*
X155444250Y-77036554D01*
X155387187Y-77003608D01*
X155323539Y-76986554D01*
X155259892Y-76969500D01*
X155128108Y-76969500D01*
X155000812Y-77003608D01*
X154886686Y-77069500D01*
X154886683Y-77069502D01*
X154793502Y-77162683D01*
X154793500Y-77162686D01*
X154727608Y-77276812D01*
X154693500Y-77404108D01*
X138222500Y-77404108D01*
X138222500Y-62888530D01*
X149376000Y-62888530D01*
X149376000Y-63095469D01*
X149416368Y-63298412D01*
X149416370Y-63298420D01*
X149495558Y-63489596D01*
X149610524Y-63661657D01*
X149756842Y-63807975D01*
X149756845Y-63807977D01*
X149928902Y-63922941D01*
X150120080Y-64002130D01*
X150323030Y-64042499D01*
X150323034Y-64042500D01*
X150323035Y-64042500D01*
X150529966Y-64042500D01*
X150529967Y-64042499D01*
X150732920Y-64002130D01*
X150924098Y-63922941D01*
X151096155Y-63807977D01*
X151242477Y-63661655D01*
X151357441Y-63489598D01*
X151436630Y-63298420D01*
X151477000Y-63095465D01*
X151477000Y-62888535D01*
X151436630Y-62685580D01*
X151357441Y-62494402D01*
X151242477Y-62322345D01*
X151242475Y-62322342D01*
X151096157Y-62176024D01*
X151010126Y-62118541D01*
X150924098Y-62061059D01*
X150732920Y-61981870D01*
X150732912Y-61981868D01*
X150529969Y-61941500D01*
X150529965Y-61941500D01*
X150323035Y-61941500D01*
X150323030Y-61941500D01*
X150120087Y-61981868D01*
X150120079Y-61981870D01*
X149928903Y-62061058D01*
X149756842Y-62176024D01*
X149610524Y-62322342D01*
X149495558Y-62494403D01*
X149416370Y-62685579D01*
X149416368Y-62685587D01*
X149376000Y-62888530D01*
X138222500Y-62888530D01*
X138222500Y-60348530D01*
X149376000Y-60348530D01*
X149376000Y-60555469D01*
X149416368Y-60758412D01*
X149416370Y-60758420D01*
X149495558Y-60949596D01*
X149610524Y-61121657D01*
X149756842Y-61267975D01*
X149756845Y-61267977D01*
X149928902Y-61382941D01*
X150120080Y-61462130D01*
X150290357Y-61496000D01*
X150323030Y-61502499D01*
X150323034Y-61502500D01*
X150323035Y-61502500D01*
X150529966Y-61502500D01*
X150529967Y-61502499D01*
X150732920Y-61462130D01*
X150924098Y-61382941D01*
X151096155Y-61267977D01*
X151242477Y-61121655D01*
X151357441Y-60949598D01*
X151436630Y-60758420D01*
X151477000Y-60555465D01*
X151477000Y-60348535D01*
X151436630Y-60145580D01*
X151357441Y-59954402D01*
X151242477Y-59782345D01*
X151242475Y-59782342D01*
X151096157Y-59636024D01*
X151010126Y-59578541D01*
X150924098Y-59521059D01*
X150732920Y-59441870D01*
X150732912Y-59441868D01*
X150529969Y-59401500D01*
X150529965Y-59401500D01*
X150323035Y-59401500D01*
X150323030Y-59401500D01*
X150120087Y-59441868D01*
X150120079Y-59441870D01*
X149928903Y-59521058D01*
X149756842Y-59636024D01*
X149610524Y-59782342D01*
X149495558Y-59954403D01*
X149416370Y-60145579D01*
X149416368Y-60145587D01*
X149376000Y-60348530D01*
X138222500Y-60348530D01*
X138222500Y-52324030D01*
X149122000Y-52324030D01*
X149122000Y-52530969D01*
X149162368Y-52733912D01*
X149162370Y-52733920D01*
X149241558Y-52925096D01*
X149356524Y-53097157D01*
X149502842Y-53243475D01*
X149502845Y-53243477D01*
X149674902Y-53358441D01*
X149866080Y-53437630D01*
X150069030Y-53477999D01*
X150069034Y-53478000D01*
X150069035Y-53478000D01*
X150275966Y-53478000D01*
X150275967Y-53477999D01*
X150478920Y-53437630D01*
X150670098Y-53358441D01*
X150842155Y-53243477D01*
X150988477Y-53097155D01*
X151103441Y-52925098D01*
X151182630Y-52733920D01*
X151223000Y-52530965D01*
X151223000Y-52324035D01*
X151182630Y-52121080D01*
X151103441Y-51929902D01*
X150988477Y-51757845D01*
X150988475Y-51757842D01*
X150842157Y-51611524D01*
X150756126Y-51554041D01*
X150670098Y-51496559D01*
X150478920Y-51417370D01*
X150478912Y-51417368D01*
X150275969Y-51377000D01*
X150275965Y-51377000D01*
X150069035Y-51377000D01*
X150069030Y-51377000D01*
X149866087Y-51417368D01*
X149866079Y-51417370D01*
X149674903Y-51496558D01*
X149502842Y-51611524D01*
X149356524Y-51757842D01*
X149241558Y-51929903D01*
X149162370Y-52121079D01*
X149162368Y-52121087D01*
X149122000Y-52324030D01*
X138222500Y-52324030D01*
X138222500Y-49784030D01*
X149122000Y-49784030D01*
X149122000Y-49990969D01*
X149162368Y-50193912D01*
X149162370Y-50193920D01*
X149241558Y-50385096D01*
X149356524Y-50557157D01*
X149502842Y-50703475D01*
X149502845Y-50703477D01*
X149674902Y-50818441D01*
X149866080Y-50897630D01*
X150069030Y-50937999D01*
X150069034Y-50938000D01*
X150069035Y-50938000D01*
X150275966Y-50938000D01*
X150275967Y-50937999D01*
X150478920Y-50897630D01*
X150670098Y-50818441D01*
X150842155Y-50703477D01*
X150988477Y-50557155D01*
X151103441Y-50385098D01*
X151182630Y-50193920D01*
X151223000Y-49990965D01*
X151223000Y-49784035D01*
X151182630Y-49581080D01*
X151103441Y-49389902D01*
X151062531Y-49328676D01*
X151062531Y-49328674D01*
X151024663Y-49272000D01*
X155934500Y-49272000D01*
X155934500Y-63097600D01*
X155976443Y-63198858D01*
X167712782Y-74935198D01*
X167746266Y-74996519D01*
X167749100Y-75022877D01*
X167749100Y-75148291D01*
X167783208Y-75275587D01*
X167812537Y-75326386D01*
X167849100Y-75389714D01*
X167942286Y-75482900D01*
X168056414Y-75548792D01*
X168183708Y-75582900D01*
X168183710Y-75582900D01*
X168315490Y-75582900D01*
X168315492Y-75582900D01*
X168442786Y-75548792D01*
X168556914Y-75482900D01*
X168650100Y-75389714D01*
X168715992Y-75275586D01*
X168750100Y-75148292D01*
X168750100Y-75016508D01*
X168715992Y-74889214D01*
X168650100Y-74775086D01*
X168556914Y-74681900D01*
X168499850Y-74648954D01*
X168442787Y-74616008D01*
X168350973Y-74591407D01*
X168315492Y-74581900D01*
X168190078Y-74581900D01*
X168123039Y-74562215D01*
X168102397Y-74545581D01*
X156521819Y-62965003D01*
X156488334Y-62903680D01*
X156485500Y-62877322D01*
X156485500Y-50377598D01*
X156505185Y-50310559D01*
X156557989Y-50264804D01*
X156627147Y-50254860D01*
X156690703Y-50283885D01*
X156704945Y-50298438D01*
X156711640Y-50306511D01*
X156747900Y-50369314D01*
X156840665Y-50462079D01*
X156844345Y-50466516D01*
X156855977Y-50493517D01*
X156870066Y-50519318D01*
X156871054Y-50528512D01*
X156871990Y-50530684D01*
X156871564Y-50533251D01*
X156872900Y-50545676D01*
X156872900Y-61496000D01*
X156914843Y-61597258D01*
X167763582Y-72445998D01*
X167797066Y-72507319D01*
X167799900Y-72533677D01*
X167799900Y-72659091D01*
X167834008Y-72786387D01*
X167866954Y-72843450D01*
X167899900Y-72900514D01*
X167993086Y-72993700D01*
X168107214Y-73059592D01*
X168234508Y-73093700D01*
X168234510Y-73093700D01*
X168366290Y-73093700D01*
X168366292Y-73093700D01*
X168493586Y-73059592D01*
X168607714Y-72993700D01*
X168700900Y-72900514D01*
X168766792Y-72786386D01*
X168800900Y-72659092D01*
X168800900Y-72527308D01*
X168766792Y-72400014D01*
X168700900Y-72285886D01*
X168607714Y-72192700D01*
X168550650Y-72159754D01*
X168493587Y-72126808D01*
X168401773Y-72102207D01*
X168366292Y-72092700D01*
X168240878Y-72092700D01*
X168173839Y-72073015D01*
X168153197Y-72056381D01*
X157460219Y-61363403D01*
X157426734Y-61302080D01*
X157423900Y-61275722D01*
X157423900Y-50545676D01*
X157443585Y-50478637D01*
X157460219Y-50457995D01*
X157548900Y-50369314D01*
X157614792Y-50255186D01*
X157648900Y-50127892D01*
X157648900Y-49996108D01*
X157614792Y-49868814D01*
X157548900Y-49754686D01*
X157455714Y-49661500D01*
X157398650Y-49628554D01*
X157341587Y-49595608D01*
X157277939Y-49578554D01*
X157214292Y-49561500D01*
X157082508Y-49561500D01*
X156955212Y-49595608D01*
X156841086Y-49661500D01*
X156841083Y-49661502D01*
X156747902Y-49754683D01*
X156747900Y-49754686D01*
X156716887Y-49808402D01*
X156666319Y-49856617D01*
X156597712Y-49869839D01*
X156532847Y-49843871D01*
X156492320Y-49786956D01*
X156485500Y-49746401D01*
X156485500Y-49492277D01*
X156494144Y-49462836D01*
X156500668Y-49432850D01*
X156504422Y-49427834D01*
X156505185Y-49425238D01*
X156521819Y-49404596D01*
X156570796Y-49355619D01*
X156632119Y-49322134D01*
X156658477Y-49319300D01*
X156783890Y-49319300D01*
X156783892Y-49319300D01*
X156911186Y-49285192D01*
X157025314Y-49219300D01*
X157118500Y-49126114D01*
X157184392Y-49011986D01*
X157218500Y-48884692D01*
X157218500Y-48752908D01*
X157184392Y-48625614D01*
X157118500Y-48511486D01*
X157025314Y-48418300D01*
X156968250Y-48385354D01*
X156911187Y-48352408D01*
X156847539Y-48335354D01*
X156783892Y-48318300D01*
X156652108Y-48318300D01*
X156524812Y-48352408D01*
X156410686Y-48418300D01*
X156410683Y-48418302D01*
X156317502Y-48511483D01*
X156317500Y-48511486D01*
X156251608Y-48625612D01*
X156217500Y-48752908D01*
X156217500Y-48878320D01*
X156208856Y-48907756D01*
X156202333Y-48937746D01*
X156198577Y-48942763D01*
X156197815Y-48945359D01*
X156181182Y-48966001D01*
X156053942Y-49093243D01*
X155976443Y-49170742D01*
X155956331Y-49219297D01*
X155934500Y-49272000D01*
X151024663Y-49272000D01*
X150988480Y-49217849D01*
X150988474Y-49217841D01*
X150842157Y-49071524D01*
X150684229Y-48966001D01*
X150670098Y-48956559D01*
X150478920Y-48877370D01*
X150478912Y-48877368D01*
X150275969Y-48837000D01*
X150275965Y-48837000D01*
X150069035Y-48837000D01*
X150069030Y-48837000D01*
X149866087Y-48877368D01*
X149866079Y-48877370D01*
X149674903Y-48956558D01*
X149502842Y-49071524D01*
X149356524Y-49217842D01*
X149241558Y-49389903D01*
X149162370Y-49581079D01*
X149162368Y-49581087D01*
X149122000Y-49784030D01*
X138222500Y-49784030D01*
X138222500Y-43564902D01*
X144084500Y-43564902D01*
X144084500Y-43801097D01*
X144121446Y-44034368D01*
X144194433Y-44258996D01*
X144224112Y-44317243D01*
X144301657Y-44469433D01*
X144440483Y-44660510D01*
X144607490Y-44827517D01*
X144798567Y-44966343D01*
X144845976Y-44990499D01*
X145009003Y-45073566D01*
X145009005Y-45073566D01*
X145009008Y-45073568D01*
X145129412Y-45112689D01*
X145233631Y-45146553D01*
X145466903Y-45183500D01*
X145466908Y-45183500D01*
X145703097Y-45183500D01*
X145936368Y-45146553D01*
X146160992Y-45073568D01*
X146371433Y-44966343D01*
X146562510Y-44827517D01*
X146729517Y-44660510D01*
X146868343Y-44469433D01*
X146975568Y-44258992D01*
X147048553Y-44034368D01*
X147062488Y-43946384D01*
X147085500Y-43801097D01*
X147085500Y-43564902D01*
X147048553Y-43331631D01*
X147014689Y-43227412D01*
X146975568Y-43107008D01*
X146975566Y-43107005D01*
X146975566Y-43107003D01*
X146900193Y-42959076D01*
X146875650Y-42910908D01*
X153626700Y-42910908D01*
X153626700Y-43042691D01*
X153660808Y-43169987D01*
X153693754Y-43227050D01*
X153726700Y-43284114D01*
X153819886Y-43377300D01*
X153934014Y-43443192D01*
X154061308Y-43477300D01*
X154061310Y-43477300D01*
X154193090Y-43477300D01*
X154193092Y-43477300D01*
X154320386Y-43443192D01*
X154434514Y-43377300D01*
X154527700Y-43284114D01*
X154593592Y-43169986D01*
X154627700Y-43042692D01*
X154627700Y-42910908D01*
X154593592Y-42783614D01*
X154527700Y-42669486D01*
X154434514Y-42576300D01*
X154369013Y-42538483D01*
X154320387Y-42510408D01*
X154256739Y-42493354D01*
X154193092Y-42476300D01*
X154061308Y-42476300D01*
X153934012Y-42510408D01*
X153819886Y-42576300D01*
X153819883Y-42576302D01*
X153726702Y-42669483D01*
X153726700Y-42669486D01*
X153660808Y-42783612D01*
X153626700Y-42910908D01*
X146875650Y-42910908D01*
X146868342Y-42896566D01*
X146729517Y-42705490D01*
X146562510Y-42538483D01*
X146371433Y-42399657D01*
X146160996Y-42292433D01*
X145936368Y-42219446D01*
X145703097Y-42182500D01*
X145703092Y-42182500D01*
X145466908Y-42182500D01*
X145466903Y-42182500D01*
X145233631Y-42219446D01*
X145009003Y-42292433D01*
X144798566Y-42399657D01*
X144693077Y-42476300D01*
X144607490Y-42538483D01*
X144607488Y-42538485D01*
X144607487Y-42538485D01*
X144440485Y-42705487D01*
X144440485Y-42705488D01*
X144440483Y-42705490D01*
X144383724Y-42783612D01*
X144301657Y-42896566D01*
X144194433Y-43107003D01*
X144121446Y-43331631D01*
X144084500Y-43564902D01*
X138222500Y-43564902D01*
X138222500Y-37498730D01*
X144084500Y-37498730D01*
X144084500Y-39707269D01*
X144087353Y-39737699D01*
X144087353Y-39737701D01*
X144132206Y-39865880D01*
X144132207Y-39865882D01*
X144212850Y-39975150D01*
X144322118Y-40055793D01*
X144364845Y-40070744D01*
X144450299Y-40100646D01*
X144480730Y-40103500D01*
X144480734Y-40103500D01*
X146689270Y-40103500D01*
X146719699Y-40100646D01*
X146719701Y-40100646D01*
X146783790Y-40078219D01*
X146847882Y-40055793D01*
X146957150Y-39975150D01*
X147037793Y-39865882D01*
X147060219Y-39801790D01*
X147082646Y-39737701D01*
X147082646Y-39737699D01*
X147085500Y-39707269D01*
X147085500Y-38566108D01*
X159265500Y-38566108D01*
X159265500Y-38697891D01*
X159299608Y-38825187D01*
X159332554Y-38882250D01*
X159365500Y-38939314D01*
X159365502Y-38939316D01*
X159454181Y-39027995D01*
X159487666Y-39089318D01*
X159490500Y-39115676D01*
X159490500Y-59998800D01*
X159530971Y-60096505D01*
X159532443Y-60100058D01*
X159532444Y-60100059D01*
X179803181Y-80370796D01*
X179836666Y-80432119D01*
X179839500Y-80458477D01*
X179839500Y-80583892D01*
X179849742Y-80622116D01*
X179873608Y-80711187D01*
X179875983Y-80715300D01*
X179939500Y-80825314D01*
X180032686Y-80918500D01*
X180146814Y-80984392D01*
X180274108Y-81018500D01*
X180274110Y-81018500D01*
X180405890Y-81018500D01*
X180405892Y-81018500D01*
X180533186Y-80984392D01*
X180647314Y-80918500D01*
X180740500Y-80825314D01*
X180806392Y-80711186D01*
X180840500Y-80583892D01*
X180840500Y-80452108D01*
X180806392Y-80324814D01*
X180740500Y-80210686D01*
X180647314Y-80117500D01*
X180572029Y-80074034D01*
X180533187Y-80051608D01*
X180469539Y-80034554D01*
X180405892Y-80017500D01*
X180280477Y-80017500D01*
X180213438Y-79997815D01*
X180192796Y-79981181D01*
X175431323Y-75219708D01*
X179839500Y-75219708D01*
X179839500Y-75351492D01*
X179849742Y-75389716D01*
X179873608Y-75478787D01*
X179875983Y-75482900D01*
X179939500Y-75592914D01*
X180032686Y-75686100D01*
X180146814Y-75751992D01*
X180274108Y-75786100D01*
X180274110Y-75786100D01*
X180405890Y-75786100D01*
X180405892Y-75786100D01*
X180533186Y-75751992D01*
X180647314Y-75686100D01*
X180740500Y-75592914D01*
X180806392Y-75478786D01*
X180840500Y-75351492D01*
X180840500Y-75219708D01*
X180806392Y-75092414D01*
X180740500Y-74978286D01*
X180647314Y-74885100D01*
X180544753Y-74825886D01*
X180533187Y-74819208D01*
X180469539Y-74802154D01*
X180405892Y-74785100D01*
X180274108Y-74785100D01*
X180146812Y-74819208D01*
X180032686Y-74885100D01*
X180032683Y-74885102D01*
X179939502Y-74978283D01*
X179939500Y-74978286D01*
X179873608Y-75092412D01*
X179845024Y-75199091D01*
X179839500Y-75219708D01*
X175431323Y-75219708D01*
X160077819Y-59866204D01*
X160044334Y-59804881D01*
X160041500Y-59778523D01*
X160041500Y-57011304D01*
X167899500Y-57011304D01*
X167899500Y-57188695D01*
X167934103Y-57362658D01*
X167934106Y-57362667D01*
X168001983Y-57526540D01*
X168001990Y-57526553D01*
X168100535Y-57674034D01*
X168100538Y-57674038D01*
X168225961Y-57799461D01*
X168225965Y-57799464D01*
X168373446Y-57898009D01*
X168373459Y-57898016D01*
X168496363Y-57948923D01*
X168537334Y-57965894D01*
X168537336Y-57965894D01*
X168537341Y-57965896D01*
X168711304Y-58000499D01*
X168711307Y-58000500D01*
X168711309Y-58000500D01*
X168888693Y-58000500D01*
X168888694Y-58000499D01*
X168946682Y-57988964D01*
X169062658Y-57965896D01*
X169062661Y-57965894D01*
X169062666Y-57965894D01*
X169226547Y-57898013D01*
X169374035Y-57799464D01*
X169499464Y-57674035D01*
X169598013Y-57526547D01*
X169665894Y-57362666D01*
X169700500Y-57188691D01*
X169700500Y-57011309D01*
X169700500Y-57011306D01*
X169700499Y-57011304D01*
X169665896Y-56837341D01*
X169665893Y-56837332D01*
X169598016Y-56673459D01*
X169598009Y-56673446D01*
X169499464Y-56525965D01*
X169499461Y-56525961D01*
X169374038Y-56400538D01*
X169374034Y-56400535D01*
X169226553Y-56301990D01*
X169226540Y-56301983D01*
X169062667Y-56234106D01*
X169062658Y-56234103D01*
X168888694Y-56199500D01*
X168888691Y-56199500D01*
X168711309Y-56199500D01*
X168711306Y-56199500D01*
X168537341Y-56234103D01*
X168537332Y-56234106D01*
X168373459Y-56301983D01*
X168373446Y-56301990D01*
X168225965Y-56400535D01*
X168225961Y-56400538D01*
X168100538Y-56525961D01*
X168100535Y-56525965D01*
X168001990Y-56673446D01*
X168001983Y-56673459D01*
X167934106Y-56837332D01*
X167934103Y-56837341D01*
X167899500Y-57011304D01*
X160041500Y-57011304D01*
X160041500Y-55962233D01*
X160061185Y-55895194D01*
X160113989Y-55849439D01*
X160183147Y-55839495D01*
X160197571Y-55842453D01*
X160309708Y-55872500D01*
X160309711Y-55872500D01*
X160441490Y-55872500D01*
X160441492Y-55872500D01*
X160568786Y-55838392D01*
X160682914Y-55772500D01*
X160776100Y-55679314D01*
X160841992Y-55565186D01*
X160876100Y-55437892D01*
X160876100Y-55356908D01*
X171182500Y-55356908D01*
X171182500Y-55488691D01*
X171216608Y-55615987D01*
X171249554Y-55673050D01*
X171282500Y-55730114D01*
X171375686Y-55823300D01*
X171489814Y-55889192D01*
X171617108Y-55923300D01*
X171617110Y-55923300D01*
X171748890Y-55923300D01*
X171748892Y-55923300D01*
X171876186Y-55889192D01*
X171990314Y-55823300D01*
X172083500Y-55730114D01*
X172149392Y-55615986D01*
X172183500Y-55488692D01*
X172183500Y-55356908D01*
X172149392Y-55229614D01*
X172083500Y-55115486D01*
X171990314Y-55022300D01*
X171902330Y-54971502D01*
X171876187Y-54956408D01*
X171812539Y-54939354D01*
X171748892Y-54922300D01*
X171617108Y-54922300D01*
X171489812Y-54956408D01*
X171375686Y-55022300D01*
X171375683Y-55022302D01*
X171282502Y-55115483D01*
X171282500Y-55115486D01*
X171216608Y-55229612D01*
X171182500Y-55356908D01*
X160876100Y-55356908D01*
X160876100Y-55306108D01*
X160841992Y-55178814D01*
X160776100Y-55064686D01*
X160682914Y-54971500D01*
X160625850Y-54938554D01*
X160568787Y-54905608D01*
X160505139Y-54888554D01*
X160441492Y-54871500D01*
X160309708Y-54871500D01*
X160197592Y-54901540D01*
X160127743Y-54899878D01*
X160069881Y-54860715D01*
X160042377Y-54796487D01*
X160041500Y-54781766D01*
X160041500Y-52054908D01*
X174149900Y-52054908D01*
X174149900Y-52186691D01*
X174184008Y-52313987D01*
X174216954Y-52371050D01*
X174249900Y-52428114D01*
X174249902Y-52428116D01*
X174338581Y-52516795D01*
X174372066Y-52578118D01*
X174374900Y-52604476D01*
X174374900Y-66296000D01*
X174416843Y-66397258D01*
X174416844Y-66397259D01*
X188187181Y-80167596D01*
X188220666Y-80228919D01*
X188223500Y-80255277D01*
X188223500Y-80380692D01*
X188233128Y-80416623D01*
X188257608Y-80507987D01*
X188290554Y-80565050D01*
X188323500Y-80622114D01*
X188416686Y-80715300D01*
X188530814Y-80781192D01*
X188658108Y-80815300D01*
X188658110Y-80815300D01*
X188789890Y-80815300D01*
X188789892Y-80815300D01*
X188917186Y-80781192D01*
X189031314Y-80715300D01*
X189124500Y-80622114D01*
X189190392Y-80507986D01*
X189224500Y-80380692D01*
X189224500Y-80248908D01*
X189190392Y-80121614D01*
X189124500Y-80007486D01*
X189031314Y-79914300D01*
X188974250Y-79881354D01*
X188917187Y-79848408D01*
X188853539Y-79831354D01*
X188789892Y-79814300D01*
X188664477Y-79814300D01*
X188597438Y-79794615D01*
X188576796Y-79777981D01*
X183866123Y-75067308D01*
X188223500Y-75067308D01*
X188223500Y-75199091D01*
X188257608Y-75326387D01*
X188272102Y-75351490D01*
X188323500Y-75440514D01*
X188416686Y-75533700D01*
X188530814Y-75599592D01*
X188658108Y-75633700D01*
X188658110Y-75633700D01*
X188789890Y-75633700D01*
X188789892Y-75633700D01*
X188917186Y-75599592D01*
X189031314Y-75533700D01*
X189124500Y-75440514D01*
X189190392Y-75326386D01*
X189224500Y-75199092D01*
X189224500Y-75067308D01*
X189190392Y-74940014D01*
X189124500Y-74825886D01*
X189031314Y-74732700D01*
X188943330Y-74681902D01*
X188917187Y-74666808D01*
X188853539Y-74649754D01*
X188789892Y-74632700D01*
X188658108Y-74632700D01*
X188530812Y-74666808D01*
X188416686Y-74732700D01*
X188416683Y-74732702D01*
X188323502Y-74825883D01*
X188323500Y-74825886D01*
X188257608Y-74940012D01*
X188223500Y-75067308D01*
X183866123Y-75067308D01*
X174962219Y-66163404D01*
X174928734Y-66102081D01*
X174925900Y-66075723D01*
X174925900Y-52604476D01*
X174945585Y-52537437D01*
X174962219Y-52516795D01*
X175050900Y-52428114D01*
X175116792Y-52313986D01*
X175150900Y-52186692D01*
X175150900Y-52054908D01*
X175116792Y-51927614D01*
X175050900Y-51813486D01*
X174957714Y-51720300D01*
X174900650Y-51687354D01*
X174843587Y-51654408D01*
X174779939Y-51637354D01*
X174716292Y-51620300D01*
X174584508Y-51620300D01*
X174457212Y-51654408D01*
X174343086Y-51720300D01*
X174343083Y-51720302D01*
X174249902Y-51813483D01*
X174249900Y-51813486D01*
X174184008Y-51927612D01*
X174149900Y-52054908D01*
X160041500Y-52054908D01*
X160041500Y-45810247D01*
X185335500Y-45810247D01*
X185335500Y-47349752D01*
X185347131Y-47408229D01*
X185347132Y-47408230D01*
X185391447Y-47474552D01*
X185457769Y-47518867D01*
X185457770Y-47518868D01*
X185516247Y-47530499D01*
X185516250Y-47530500D01*
X185516252Y-47530500D01*
X187055750Y-47530500D01*
X187055751Y-47530499D01*
X187070568Y-47527552D01*
X187114229Y-47518868D01*
X187114229Y-47518867D01*
X187114231Y-47518867D01*
X187180552Y-47474552D01*
X187224867Y-47408231D01*
X187224867Y-47408229D01*
X187224868Y-47408229D01*
X187236499Y-47349752D01*
X187236500Y-47349750D01*
X187236500Y-45810249D01*
X187236499Y-45810247D01*
X187224868Y-45751770D01*
X187224867Y-45751769D01*
X187180552Y-45685447D01*
X187114230Y-45641132D01*
X187114229Y-45641131D01*
X187055752Y-45629500D01*
X187055748Y-45629500D01*
X185516252Y-45629500D01*
X185516247Y-45629500D01*
X185457770Y-45641131D01*
X185457769Y-45641132D01*
X185391447Y-45685447D01*
X185347132Y-45751769D01*
X185347131Y-45751770D01*
X185335500Y-45810247D01*
X160041500Y-45810247D01*
X160041500Y-43946379D01*
X185335500Y-43946379D01*
X185335500Y-44133620D01*
X185372025Y-44317243D01*
X185372027Y-44317251D01*
X185443676Y-44490228D01*
X185443681Y-44490237D01*
X185547697Y-44645907D01*
X185547700Y-44645911D01*
X185680088Y-44778299D01*
X185680092Y-44778302D01*
X185835762Y-44882318D01*
X185835768Y-44882321D01*
X185835769Y-44882322D01*
X186008749Y-44953973D01*
X186192379Y-44990499D01*
X186192383Y-44990500D01*
X186192384Y-44990500D01*
X186379617Y-44990500D01*
X186379618Y-44990499D01*
X186563251Y-44953973D01*
X186736231Y-44882322D01*
X186891908Y-44778302D01*
X187024302Y-44645908D01*
X187128322Y-44490231D01*
X187199973Y-44317251D01*
X187236500Y-44133616D01*
X187236500Y-43946384D01*
X187199973Y-43762749D01*
X187128322Y-43589769D01*
X187128321Y-43589768D01*
X187128318Y-43589762D01*
X187024302Y-43434092D01*
X187024299Y-43434088D01*
X186891911Y-43301700D01*
X186891907Y-43301697D01*
X186736237Y-43197681D01*
X186736228Y-43197676D01*
X186563251Y-43126027D01*
X186563243Y-43126025D01*
X186379620Y-43089500D01*
X186379616Y-43089500D01*
X186192384Y-43089500D01*
X186192379Y-43089500D01*
X186008756Y-43126025D01*
X186008748Y-43126027D01*
X185835771Y-43197676D01*
X185835762Y-43197681D01*
X185680092Y-43301697D01*
X185680088Y-43301700D01*
X185547700Y-43434088D01*
X185547697Y-43434092D01*
X185443681Y-43589762D01*
X185443676Y-43589771D01*
X185372027Y-43762748D01*
X185372025Y-43762756D01*
X185335500Y-43946379D01*
X160041500Y-43946379D01*
X160041500Y-41406379D01*
X185335500Y-41406379D01*
X185335500Y-41593620D01*
X185372025Y-41777243D01*
X185372027Y-41777251D01*
X185443676Y-41950228D01*
X185443681Y-41950237D01*
X185547697Y-42105907D01*
X185547700Y-42105911D01*
X185680088Y-42238299D01*
X185680092Y-42238302D01*
X185835762Y-42342318D01*
X185835768Y-42342321D01*
X185835769Y-42342322D01*
X186008749Y-42413973D01*
X186192379Y-42450499D01*
X186192383Y-42450500D01*
X186192384Y-42450500D01*
X186379617Y-42450500D01*
X186379618Y-42450499D01*
X186563251Y-42413973D01*
X186736231Y-42342322D01*
X186891908Y-42238302D01*
X187024302Y-42105908D01*
X187128322Y-41950231D01*
X187199973Y-41777251D01*
X187236500Y-41593616D01*
X187236500Y-41406384D01*
X187199973Y-41222749D01*
X187128322Y-41049769D01*
X187128321Y-41049768D01*
X187128318Y-41049762D01*
X187024302Y-40894092D01*
X187024299Y-40894088D01*
X186891911Y-40761700D01*
X186891907Y-40761697D01*
X186736237Y-40657681D01*
X186736228Y-40657676D01*
X186563251Y-40586027D01*
X186563243Y-40586025D01*
X186379620Y-40549500D01*
X186379616Y-40549500D01*
X186192384Y-40549500D01*
X186192379Y-40549500D01*
X186008756Y-40586025D01*
X186008748Y-40586027D01*
X185835771Y-40657676D01*
X185835762Y-40657681D01*
X185680092Y-40761697D01*
X185680088Y-40761700D01*
X185547700Y-40894088D01*
X185547697Y-40894092D01*
X185443681Y-41049762D01*
X185443676Y-41049771D01*
X185372027Y-41222748D01*
X185372025Y-41222756D01*
X185335500Y-41406379D01*
X160041500Y-41406379D01*
X160041500Y-39115676D01*
X160061185Y-39048637D01*
X160077819Y-39027995D01*
X160166500Y-38939314D01*
X160232392Y-38825186D01*
X160266500Y-38697892D01*
X160266500Y-38566108D01*
X160232392Y-38438814D01*
X160166500Y-38324686D01*
X160073314Y-38231500D01*
X160016250Y-38198554D01*
X159959187Y-38165608D01*
X159895539Y-38148554D01*
X159831892Y-38131500D01*
X159700108Y-38131500D01*
X159572812Y-38165608D01*
X159458686Y-38231500D01*
X159458683Y-38231502D01*
X159365502Y-38324683D01*
X159365500Y-38324686D01*
X159299608Y-38438812D01*
X159265500Y-38566108D01*
X147085500Y-38566108D01*
X147085500Y-37498730D01*
X147082646Y-37468300D01*
X147082646Y-37468298D01*
X147045940Y-37363400D01*
X147037793Y-37340118D01*
X146957150Y-37230850D01*
X146847882Y-37150207D01*
X146847880Y-37150206D01*
X146719700Y-37105353D01*
X146689270Y-37102500D01*
X146689266Y-37102500D01*
X144480734Y-37102500D01*
X144480730Y-37102500D01*
X144450300Y-37105353D01*
X144450298Y-37105353D01*
X144322119Y-37150206D01*
X144322117Y-37150207D01*
X144212850Y-37230850D01*
X144132207Y-37340117D01*
X144132206Y-37340119D01*
X144087353Y-37468298D01*
X144087353Y-37468300D01*
X144084500Y-37498730D01*
X138222500Y-37498730D01*
X138222500Y-36967308D01*
X156369900Y-36967308D01*
X156369900Y-37099091D01*
X156404009Y-37226388D01*
X156404009Y-37226389D01*
X156447317Y-37301400D01*
X156463790Y-37369300D01*
X156447317Y-37425400D01*
X156404009Y-37500410D01*
X156404009Y-37500411D01*
X156369900Y-37627708D01*
X156369900Y-37759491D01*
X156404008Y-37886787D01*
X156436954Y-37943850D01*
X156469900Y-38000914D01*
X156563086Y-38094100D01*
X156677214Y-38159992D01*
X156804508Y-38194100D01*
X156804510Y-38194100D01*
X156936290Y-38194100D01*
X156936292Y-38194100D01*
X157063586Y-38159992D01*
X157177714Y-38094100D01*
X157270900Y-38000914D01*
X157336792Y-37886786D01*
X157370900Y-37759492D01*
X157370900Y-37627708D01*
X157336792Y-37500414D01*
X157335822Y-37498734D01*
X157293483Y-37425401D01*
X157277009Y-37357501D01*
X157293483Y-37301399D01*
X157336789Y-37226391D01*
X157336790Y-37226389D01*
X157336792Y-37226386D01*
X157370900Y-37099092D01*
X157370900Y-36967308D01*
X157336792Y-36840014D01*
X157270900Y-36725886D01*
X157177714Y-36632700D01*
X157120650Y-36599754D01*
X157063587Y-36566808D01*
X156999939Y-36549754D01*
X156936292Y-36532700D01*
X156804508Y-36532700D01*
X156677212Y-36566808D01*
X156563086Y-36632700D01*
X156563083Y-36632702D01*
X156469902Y-36725883D01*
X156469900Y-36725886D01*
X156404008Y-36840012D01*
X156369900Y-36967308D01*
X138222500Y-36967308D01*
X138222500Y-35719833D01*
X138242185Y-35652794D01*
X138258819Y-35632152D01*
X139010152Y-34880819D01*
X139071475Y-34847334D01*
X139097833Y-34844500D01*
X194150167Y-34844500D01*
X194217206Y-34864185D01*
G37*
%TD.AperFunction*%
%TD*%
M02*
